<svg width="142" height="71" viewBox="0 0 142 71" fill="none" xmlns="http://www.w3.org/2000/svg">
<rect width="142" height="71" rx="5" fill="#30323F"/>
<path d="M53.5 37.3416C47.6005 39.0535 37.8291 40.5068 41.4575 34.1812C41.8268 33.5373 42.3349 32.8129 43 32C50.2 23.2 59 19 62.5 18L65.5 13L68 18C73.3333 19.3333 84.5 22.9 86.5 26.5C88.6667 25.1667 93.2 22.7 94 23.5C95 24.5 92.5 35.6584 92 36.5C91.5 37.3416 96.5 38.5158 97 48.7579L88.3966 46.5C82.4966 48.3251 72.5451 49.9003 75.7124 43.1711L53.5 37.3416Z" fill="white"/>
<path d="M16 27.5L53.5 37.3416M126.5 56.5L97 48.7579M53.5 37.3416C47 39.2278 35.8 40.8 43 32C50.2 23.2 59 19 62.5 18L65.5 13L68 18C73.3333 19.3333 84.5 22.9 86.5 26.5C88.6667 25.1667 93.2 22.7 94 23.5C95 24.5 92.5 35.6584 92 36.5C91.5 37.3416 96.5 38.5158 97 48.7579M53.5 37.3416L75.7124 43.1711M97 48.7579L88.3966 46.5M88.3966 46.5C82.4966 48.3251 72.5451 49.9003 75.7124 43.1711M88.3966 46.5L75.7124 43.1711M75.7124 43.1711C76.016 42.5261 76.4402 41.8047 77 41L75.7124 43.1711Z" stroke="black"/>
<path d="M76 44L77 42.5L89 45.5L86 46.5L76 44Z" fill="white"/>
<path d="M61.5 32C62.5 32.8333 65 34.5 67 34.5" stroke="black"/>
<path d="M58 25.5C58 25.9 61 27.6667 62.5 28.5C63 28.7811 61.7236 24.9472 61.5 24.5C61 23.5 60 22.5 59.5 22.5C59 22.5 58 25 58 25.5Z" fill="black"/>
<path d="M78.1912 31.4405C78.1057 31.7129 73.7975 31.6819 71.654 31.6324C70.9388 31.6182 73.4305 29.5328 73.8191 29.3203C74.6879 28.8451 76.2118 28.5755 76.8669 28.7811C77.522 28.9867 78.298 31.1001 78.1912 31.4405Z" fill="black"/>
<circle cx="58" cy="30" r="1.5" fill="black"/>
<circle cx="75" cy="36" r="1.5" fill="black"/>
<path d="M41.5 35L43.5 33L53.5 36L51 37.5L41.5 35Z" fill="white"/>
</svg>
