<svg width="142" height="71" viewBox="0 0 142 71" fill="none" xmlns="http://www.w3.org/2000/svg">
<rect width="142" height="71" rx="5" fill="#30323F"/>
<path d="M48 27.034C42 20.234 40.1667 28.8673 40 34.034L96.5 48.034C97.7 42.834 94.3333 38.2006 92.5 36.534C94.9 29.334 94.5 25.2006 94 24.034C93.2 23.634 89 26.2006 87 27.534C79.8 21.134 72.3333 19.534 69.5 19.534C68 16.034 66 14.534 65.5 14.034C65.1 13.634 62.3333 16.8673 61 18.534C59.8 18.534 51.8333 24.2006 48 27.034Z" fill="white"/>
<path d="M48 27.0349C48.4742 27.5971 48.9738 28.2601 49.5 29.0339L48 27.0349Z" fill="white"/>
<path d="M87.9999 38.0339C84.6666 33.8673 78.0999 28.9339 78.4999 42.5339M40 33.0339C40.3075 27.9595 42.3459 20.3314 48 27.0349M48 27.0349C48.4742 27.5971 48.9738 28.2601 49.5 29.0339L48 27.0349ZM48 27.0349C48.8 25.4357 57.3333 20.7013 61.5 18.5339C61.5 17.5339 64.5 14.5339 65.5 14.0339C66.3 13.6339 68.5 17.5339 69.5 19.5339C75.5 18.7339 84 24.8673 87.5 28.0339C87.1001 26.4339 91.6667 24.7006 94 24.0339C95.2 25.2339 93.5 32.8673 92.5 36.5339C98.5 43.0339 96 47.5339 96.5 48.0339M16 28.0339L126 55.5339M61.5 31.5339C61.6667 32.0339 62.2 33.0339 63 33.0339C64 33.0339 66 32.0339 66 32.5339C66 33.0339 66.5 34.0339 67 34.5339C67.4 34.9339 68.8333 34.7006 69.5 34.5339" stroke="black"/>
<circle cx="58" cy="30.5339" r="1.5" fill="black"/>
<circle cx="75" cy="36.5339" r="1.5" fill="black"/>
</svg>
