<svg width="142" height="71" viewBox="0 0 142 71" fill="none" xmlns="http://www.w3.org/2000/svg">
<rect width="142" height="71" rx="5" fill="#30323F"/>
<path fill-rule="evenodd" clip-rule="evenodd" d="M20.3493 17.4168C19.2667 17.2247 18.2629 17.9382 18.044 18.9654L18 19V19.386V24V30C18 30 18 30 18 30V49C18 51.2091 19.7909 53 22 53H57C59.2091 53 61 51.2091 61 49V30C61 30 61 30 61 30V28.5L60.9625 28.3875C60.9871 28.2621 61 28.1326 61 28V26C61 25.0764 60.3739 24.299 59.523 24.0691L59.5207 24.0622L59.4417 24.0489C59.3711 24.033 59.2992 24.0209 59.2261 24.0126L25.479 18.3312C25.4363 18.3207 25.3931 18.3115 25.3493 18.3038L20.3493 17.4168Z" fill="white"/>
<path fill-rule="evenodd" clip-rule="evenodd" d="M121.651 17.0313C122.733 16.8392 123.737 17.5527 123.956 18.5799L124 18.6145V19.0006V23.6145V29.6145C124 29.6145 124 29.6145 124 29.6145V48.6145C124 50.8236 122.209 52.6145 120 52.6145H85.0001C82.791 52.6145 81.0001 50.8236 81.0001 48.6145V29.6145V28.1145L81.0376 28.0022C81.0129 27.8768 81 27.7471 81 27.6145V25.6145C81 24.6908 81.6261 23.9134 82.4771 23.6835L82.4794 23.6768L82.5577 23.6636C82.6286 23.6476 82.701 23.6353 82.7746 23.6271L116.521 17.9457C116.564 17.9352 116.607 17.926 116.651 17.9183L121.651 17.0313Z" fill="white"/>
</svg>
