<svg width="163" height="78" viewBox="0 0 163 78" fill="none" xmlns="http://www.w3.org/2000/svg">
<path d="M11.136 62L18.368 25.648H4.032L5.76 17.2H44.8L43.072 25.648H28.8L21.504 62H11.136ZM119.346 62.768C105.65 62.768 97.2015 54.832 97.2015 43.312C97.2015 28.016 108.402 16.432 125.042 16.432C132.978 16.432 139.442 19.248 142.642 24.368L135.154 30.512C132.85 27.12 129.266 25.264 124.338 25.264C114.226 25.264 107.698 33.008 107.698 42.672C107.698 49.456 112.178 53.936 120.242 53.936C124.786 53.936 128.818 52.336 132.146 48.752L138.29 55.024C133.554 60.528 127.026 62.768 119.346 62.768ZM142.731 62L151.691 17.2H162.123L153.163 62H142.731Z" fill="#30323F"/>
<g clip-path="url(#clip0_1_15)">
<path d="M70.6169 16.1341C70.2252 15.9563 69.7778 15.9563 69.3876 16.1341L48.2474 25.7008C47.7126 25.9448 47.3706 26.4767 47.3706 27.0627V51.1105C47.3706 51.7011 47.7171 52.2344 48.258 52.474L69.3951 61.8704C69.7808 62.0407 70.2222 62.0407 70.6079 61.8704L91.7435 52.474C92.2814 52.2344 92.6294 51.6996 92.6294 51.1105V27.0627C92.6294 26.4767 92.2844 25.9448 91.7525 25.7023L70.6169 16.1341ZM66.6471 56.9816L50.7242 49.9008V31.2585L66.6471 38.3364V56.9816Z" fill="#1B8345"/>
</g>
<defs>
<clipPath id="clip0_1_15">
<rect width="46" height="46" fill="white" transform="translate(47 16)"/>
</clipPath>
</defs>
</svg>
